<svg width="1082" height="922" viewBox="0 0 1082 922" fill="none" xmlns="http://www.w3.org/2000/svg">
<g clip-path="url(#clip0_134_202)">
<path d="M930.97 786.936C1110.88 606.911 1110.88 315.033 930.97 135.008C751.062 -45.0167 459.373 -45.0167 279.464 135.008C99.556 315.033 99.5559 606.911 279.464 786.936C459.373 966.961 751.062 966.961 930.97 786.936Z" fill="#F9CA47"/>
<path d="M213.255 720.95C309.534 720.95 387.584 642.849 387.584 546.508C387.584 450.166 309.534 372.066 213.255 372.066C116.976 372.066 38.9261 450.166 38.9261 546.508C38.9261 642.849 116.976 720.95 213.255 720.95Z" fill="url(#paint0_linear_134_202)"/>
<path d="M1014.91 662.697C1010.56 608.923 986.144 558.756 946.513 522.178C906.881 485.6 854.941 465.291 801.026 465.291C747.111 465.291 695.171 485.6 655.539 522.178C615.908 558.756 591.49 608.923 587.142 662.697H1014.91Z" fill="url(#paint1_linear_134_202)"/>
<path d="M308.649 225.456C302.848 219.827 322.626 206.82 331.466 199.302C340.307 191.785 359.42 191.365 378.045 193.533C396.669 195.701 414.071 196.295 423.68 192.379C433.289 188.463 436.294 190.176 436.015 193.533C435.735 196.89 412.568 202.904 413.477 210.141C414.385 217.379 422.177 211.645 425.776 215.841C429.376 220.037 430.284 225.771 437.517 222.834C444.75 219.897 444.121 215.002 445.624 212.589C447.126 210.176 453.137 208.708 455.233 217.1C457.33 225.491 471.726 223.778 473.508 228.149C475.29 232.519 470.538 233.883 462.746 232.519C454.954 231.156 446.497 237.764 439.893 251.75C433.289 265.736 422.806 287.66 409.878 290.981C396.949 294.303 381.923 290.142 374.411 293.394C367.946 296.156 365.71 306.016 376.542 310.212C387.374 314.408 395.027 311.716 398.451 313.709C404.322 317.205 398.137 321.366 401.596 325.737C405.055 330.107 408.829 329.933 408.375 332.345C407.921 334.758 406.104 336.716 406.418 339.338C406.733 341.961 403.273 343.989 401.142 339.338C399.01 334.688 397.263 332.59 394.538 331.995C391.812 331.401 388.702 332.73 386.431 326.121C384.16 319.513 376.368 317.87 369.169 320.107C361.971 322.345 354.738 320.877 351.698 313.114C348.658 305.352 342.438 283.464 336.568 274.163C330.697 264.862 322.171 257.764 324.128 252.799C326.085 247.834 339.293 239.897 341.984 228.009C344.675 216.121 336.428 214.337 329.509 218.533C322.591 222.729 313.75 230.421 308.649 225.456Z" fill="#FFE4A1"/>
<path d="M406.768 372.94C415.783 380.248 411.17 388.569 413.966 398.989C416.761 409.409 429.585 412.975 431.437 426.647C433.289 440.318 434.617 471.123 435.421 482.591C436.224 494.06 447.441 509.864 453.451 507.836C459.461 505.808 450.656 498.64 457.854 489.409C465.052 480.179 470.258 476.997 470.258 468.99C470.258 460.983 476.269 463.78 481.475 458.15C486.681 452.521 485.878 447.661 491.504 438.115C497.129 428.57 505.096 430.912 508.311 413.255C511.526 395.597 517.92 378.01 508.311 372.8C498.702 367.59 493.495 372.346 487.905 361.331C482.314 350.317 475.465 350.352 466.275 350.842C457.085 351.331 455.443 347.66 449.433 340.352C443.422 333.045 427.803 326.366 421.793 329.128C415.783 331.891 416.482 343.464 411.799 351.576C407.117 359.688 398.346 366.122 406.768 372.94Z" fill="#FFE4A1"/>
<path d="M540.074 235.386C548.425 239.897 539.445 246.191 543.359 250.387C547.272 254.582 551.465 257.03 558.07 253.394C564.674 249.757 570.404 245.491 576.414 255.177C582.425 264.862 594.41 277.764 602.831 287.38C611.252 296.995 617.262 304.198 623.797 304.198C630.331 304.198 632.812 297.205 638.228 299.408C643.644 301.611 643.015 312.31 640.919 316.541C638.822 320.772 621.106 347.485 620.792 356.506C620.477 365.527 622.888 373.639 618.975 380.562C615.061 387.485 598.638 395.283 592.278 400.667C585.919 406.052 580.573 419.619 578.301 425.143C576.03 430.668 561.913 442.276 553.492 441.682C545.071 441.087 545.385 430.283 545.7 420.038C546.014 409.793 547.796 401.402 544.197 396.017C540.598 390.632 538.781 390.283 540.004 383.989C541.227 377.695 543.498 375.248 541.507 371.052C539.515 366.856 533.68 360.842 533.68 350.912C533.68 340.982 531.583 340.108 528.263 338.464C524.231 336.438 521.138 332.93 519.633 328.674C519.039 324.723 503.804 330.107 497.793 325.912C491.783 321.716 481.196 299.758 483.816 289.233C486.437 278.708 532.247 231.156 540.074 235.386Z" fill="#FFE4A1"/>
<path d="M848.548 142.693C848.548 137.693 841.559 130.875 830.518 133.497C819.476 136.12 806.477 140.7 798.265 136.505C790.054 132.309 791.487 128.288 786.07 128.078C780.654 127.868 781.074 134.267 775.867 133.078C770.661 131.889 768.04 129.581 758.396 128.882C748.752 128.183 721.566 130.665 710.35 132.064C699.133 133.463 681.697 156.924 672.681 159.337C663.666 161.749 660.277 159.931 654.267 159.721C648.257 159.512 641.862 163.218 635.433 162.938C629.003 162.659 622.818 158.917 615.41 160.141C608.003 161.365 586.373 192.029 580.188 190.001C574.003 187.973 587.98 172.344 587.386 171.155C586.792 169.966 580.782 175.945 573.409 175.176C566.036 174.407 559.991 172.134 553.772 176.75C547.552 181.365 538.362 193.078 535.566 193.533C532.771 193.987 529.137 192.379 525.957 195.386C522.777 198.393 521.135 203.218 522.463 203.218C523.791 203.218 529.102 196.4 532.701 198.813C536.3 201.225 526.691 206.225 530.08 207.834C533.47 209.442 540.563 199.617 544.057 195.211C547.552 190.806 557.056 184.162 563.101 191.4C569.146 198.638 555.274 212.379 552.898 214.442C550.522 216.505 538.676 222.659 542.869 226.645C547.063 230.631 547.272 224.652 555.484 223.638C563.695 222.624 563.905 223.638 568.517 221.855C573.13 220.072 575.925 216.855 579.524 218.044C583.123 219.232 579.909 224.652 584.521 225.456C589.134 226.26 590.531 222.239 595.004 218.253C599.477 214.267 599.581 212.239 609.226 217.834C618.87 223.428 619.708 227.065 618.415 229.267C617.123 231.47 608.422 233.184 602.412 232.519C596.402 231.855 594.06 232.519 592.313 235.107C590.566 237.694 595.004 239.093 595.808 244.897C596.611 250.701 595.318 254.897 599.302 260.736C603.285 266.575 620.547 280.142 624.565 286.156C628.584 292.17 633.371 289.967 638.542 286.96C643.714 283.953 646.335 284.583 648.152 282.17C649.969 279.757 652.135 269.932 649.934 268.184C647.732 266.436 644.553 270.177 638.542 263.568C632.532 256.96 628.06 250.352 631.135 248.533C634.21 246.715 642.736 258.568 654.337 263.778C665.938 268.988 675.302 273.568 677.573 285.212C679.845 296.855 677.364 309.058 680.788 310.457C684.213 311.855 690.991 297.834 699.797 293.429C708.603 289.023 716.639 286.436 717.618 300.422C718.596 314.408 717.618 317.904 725.445 322.065C733.272 326.226 740.47 328.079 747.668 334.478C754.867 340.877 756.684 344.968 759.095 344.128C761.506 343.289 757.487 337.695 759.095 332.275C761.079 326.276 761.828 319.936 761.296 313.639C760.492 306.855 748.857 296.82 750.254 289.827C751.652 282.834 762.903 278.988 773.107 272.345C783.31 265.701 786.699 261.121 786.525 252.694C786.35 244.268 771.499 227.869 779.292 222.659C787.084 217.449 788.936 246.89 796.518 246.89C804.101 246.89 793.513 234.477 800.921 227.869C808.329 221.26 817.938 216.855 819.546 205.806C821.153 194.757 812.732 189.197 813.745 182.379C814.758 175.561 817.239 173.148 822.97 175.945C828.701 178.743 830.168 176.155 834.361 167.938C838.554 159.721 846.382 160.316 849.177 155.316C851.972 150.316 848.548 147.693 848.548 142.693ZM641.722 231.016C637.529 234.512 631.659 225.911 628.514 220.806C625.681 216.264 622.143 212.204 618.031 208.778C614.851 206.225 615.201 204.932 616.808 203.498C620.302 200.526 634.07 200.666 635.293 203.498C636.516 206.33 632.882 214.652 636.341 219.302C639.8 223.953 643.889 229.267 641.722 231.016Z" fill="#FFE4A1"/>
<path d="M767.9 354.688C770.171 358.185 787.398 350.492 788.866 347.485C790.333 344.478 786.944 341.156 787.678 338.464C788.412 335.772 789.18 331.471 785.581 329.443C780.2 326.296 762.17 346.436 767.9 354.688Z" fill="#FFE4A1"/>
<path d="M798.056 342.031C800.537 342.275 798.51 345.143 801.864 348.674C805.219 352.205 806.652 354.443 805.359 356.087C804.066 357.73 797.951 356.856 795.994 353.709C794.037 350.562 793.653 341.646 798.056 342.031Z" fill="#FFE4A1"/>
<path d="M803.681 335.387C805.988 331.891 811.194 333.499 819.615 336.891C828.037 340.282 839.428 350.877 838.974 353.114C838.519 355.352 832.824 355.282 830.413 356.611C828.002 357.94 819.511 359.024 815.981 353.534C812.452 348.044 813.535 344.513 810.146 342.135C806.756 339.758 801.83 338.324 803.681 335.387Z" fill="#FFE4A1"/>
<path d="M746.026 358.989C751.267 355.177 765.245 365.527 775.343 365.982C785.441 366.436 809.587 366.192 809.796 369.094C810.006 371.996 787.154 377.415 773.456 374.583C759.759 371.751 740.785 362.8 746.026 358.989Z" fill="#FFE4A1"/>
<path d="M761.436 402.486C772.652 387.031 787.154 395.283 800.117 389.548C813.081 383.814 819.406 401.891 830.203 402.486C841 403.08 840.686 394.059 839.078 386.856C837.471 379.653 842.084 378.15 850.575 389.269C859.066 400.388 867.766 413.325 873.777 417.241C879.787 421.157 882.198 419.653 881.883 429.863C881.569 440.073 881.569 462.031 871.959 462.031C862.35 462.031 856.061 448.045 842.223 441.926C828.386 435.807 802.598 455.912 790.858 453.01C779.117 450.108 765.629 425.668 761.436 419.059C759.67 416.657 758.718 413.754 758.718 410.772C758.718 407.791 759.67 404.887 761.436 402.486Z" fill="#FFE4A1"/>
<path d="M1082 663.432H0" stroke="#343947" stroke-width="0.5" stroke-miterlimit="10"/>
<path style="mix-blend-mode:multiply" opacity="0.3" d="M799.419 205.281L787.713 204.232L793.967 191.96H788.481L778.348 201.435C778.348 201.435 757.697 199.862 735.858 198.358L748.682 141.924H744.454C742.767 141.946 741.116 142.414 739.668 143.279C738.22 144.145 737.026 145.378 736.207 146.854L728.136 160.84H715.661V168.952H723.313L718.317 177.624H708.882V185.736H713.599L707.24 196.75C697.141 196.155 689.244 195.806 686.554 195.911C679.984 196.225 673.45 200.981 669.676 204.267C669.233 204.648 668.878 205.12 668.634 205.651C668.39 206.182 668.264 206.76 668.264 207.344C668.264 207.929 668.39 208.506 668.634 209.037C668.878 209.568 669.233 210.04 669.676 210.421C673.45 213.708 679.984 218.498 686.554 218.778C689.244 218.778 697.036 218.533 707.24 217.974L713.599 228.953H708.987V237.1H718.421L723.313 245.526H715.556V253.638H728.031L736.102 267.624C736.943 269.068 738.147 270.266 739.593 271.1C741.04 271.934 742.679 272.375 744.349 272.38H748.577L735.753 215.911C757.592 214.407 778.243 212.869 778.243 212.869L788.377 222.344H793.863L787.608 210.072L799.314 209.023L799.419 205.281Z" fill="url(#paint2_linear_134_202)"/>
<path d="M538.4 95.9925C545.324 54.371 517.217 15.0141 475.622 8.08638C434.028 1.15866 394.696 29.2835 387.773 70.905C380.85 112.527 408.956 151.883 450.551 158.811C492.146 165.739 531.477 137.614 538.4 95.9925Z" fill="url(#paint3_linear_134_202)"/>
<path d="M711.118 164.267H730.337V156.155H711.118V164.267Z" fill="#636363"/>
<path d="M704.409 181.05H723.628V172.938H704.409V181.05Z" fill="#636363"/>
<path d="M730.302 198.148L744.279 137.414H740.086C738.414 137.407 736.771 137.844 735.322 138.679C733.874 139.514 732.672 140.718 731.839 142.169L699.413 198.113L730.302 198.148Z" fill="url(#paint4_linear_134_202)"/>
<path d="M711.118 249.163H730.337V241.051H711.118V249.163Z" fill="#636363"/>
<path d="M704.409 232.379H723.628V224.267H704.409V232.379Z" fill="#636363"/>
<path d="M730.302 207.134L744.279 267.869H740.086C738.414 267.875 736.771 267.439 735.322 266.604C733.874 265.768 732.672 264.564 731.839 263.114L699.413 207.169L730.302 207.134Z" fill="url(#paint5_linear_134_202)"/>
<path d="M665.204 199.582C668.977 196.295 675.686 191.54 682.081 191.225C692.144 190.771 773.805 196.925 773.805 196.925L783.939 187.449H789.425L783.17 199.722L794.841 200.771V204.512L783.17 205.561L789.425 217.834H783.939L773.805 208.358C773.805 208.358 692.144 214.547 682.081 214.092C675.547 213.778 668.977 209.023 665.204 205.736C664.766 205.352 664.415 204.879 664.174 204.348C663.934 203.817 663.81 203.241 663.81 202.659C663.81 202.076 663.934 201.5 664.174 200.97C664.415 200.439 664.766 199.966 665.204 199.582Z" fill="white"/>
<path d="M798.51 202.799C834.291 202.799 938.49 222.135 938.49 315.597C938.49 409.059 848.443 423.989 783.904 402.311C719.365 380.632 576.554 291.471 476.967 269.757C377.381 248.044 309.976 274.233 316.231 340.352C319.201 372.276 360.119 421.087 429.76 422.521" stroke="white" stroke-width="0.69" stroke-miterlimit="10"/>
<path d="M824.682 422.661C840.854 422.661 853.964 417.682 853.964 411.542C853.964 405.401 840.854 400.423 824.682 400.423C808.51 400.423 795.4 405.401 795.4 411.542C795.4 417.682 808.51 422.661 824.682 422.661Z" fill="white"/>
<path d="M824.647 286.191C804.45 286.191 784.498 301.226 784.498 323.989C784.498 345.982 791.487 375.912 821.363 407.171C821.789 407.611 822.3 407.961 822.864 408.199C823.428 408.438 824.035 408.561 824.647 408.561C825.26 408.561 825.866 408.438 826.43 408.199C826.995 407.961 827.505 407.611 827.932 407.171C857.878 375.912 864.831 345.982 864.831 323.989C864.866 301.226 844.879 286.191 824.647 286.191ZM824.647 342.66C821.447 342.66 818.319 341.711 815.659 339.932C812.998 338.153 810.925 335.624 809.7 332.666C808.476 329.708 808.155 326.453 808.78 323.313C809.404 320.172 810.945 317.288 813.207 315.024C815.47 312.76 818.353 311.218 821.491 310.593C824.629 309.969 827.882 310.289 830.838 311.514C833.795 312.74 836.321 314.815 838.099 317.477C839.877 320.139 840.826 323.269 840.826 326.471C840.83 328.598 840.415 330.706 839.604 332.672C838.792 334.638 837.601 336.424 836.097 337.929C834.594 339.433 832.809 340.625 830.844 341.437C828.879 342.249 826.773 342.665 824.647 342.66Z" fill="#FF005D"/>
<path style="mix-blend-mode:multiply" opacity="0.65" d="M808.539 326.366C808.539 322.088 810.235 317.984 813.255 314.956C816.275 311.927 820.372 310.221 824.647 310.212V286.191C804.45 286.191 784.498 301.226 784.498 323.989C784.498 345.982 791.487 375.912 821.363 407.171C821.787 407.614 822.297 407.966 822.862 408.207C823.426 408.447 824.034 408.57 824.647 408.57V342.66C822.518 342.655 820.411 342.23 818.448 341.407C816.484 340.584 814.702 339.381 813.205 337.867C811.708 336.352 810.525 334.557 809.724 332.583C808.923 330.609 808.52 328.496 808.539 326.366Z" fill="url(#paint6_linear_134_202)"/>
<path style="mix-blend-mode:multiply" opacity="0.3" d="M622.993 352.135C630.129 347.436 635.814 340.839 639.411 333.085C643.008 325.332 644.373 316.728 643.353 308.241C642.334 299.754 638.97 291.719 633.64 285.039C628.31 278.359 621.224 273.298 613.178 270.424C605.133 267.551 596.446 266.978 588.093 268.771C579.74 270.565 572.053 274.652 565.893 280.575C559.734 286.499 555.346 294.023 553.223 302.303C551.101 310.583 551.327 319.291 553.876 327.45C554.173 328.36 554.264 329.324 554.143 330.273C554.022 331.223 553.693 332.133 553.178 332.94L543.638 347.59C543.452 347.865 543.352 348.19 543.35 348.522C543.348 348.855 543.445 349.18 543.629 349.457C543.812 349.734 544.074 349.951 544.38 350.079C544.687 350.207 545.024 350.241 545.35 350.177L562.577 347.17C563.521 347.02 564.486 347.08 565.404 347.346C566.322 347.612 567.171 348.077 567.888 348.709C575.457 355.188 584.927 359.026 594.868 359.645C604.809 360.263 614.681 357.627 622.993 352.135Z" fill="url(#paint7_linear_134_202)"/>
<path d="M620.931 345.912C627.869 341.332 633.394 334.909 636.887 327.363C640.38 319.817 641.702 311.446 640.706 303.19C639.711 294.934 636.435 287.118 631.249 280.62C626.062 274.123 619.168 269.2 611.341 266.403C603.514 263.607 595.063 263.048 586.937 264.79C578.81 266.531 571.329 270.503 565.333 276.262C559.336 282.02 555.062 289.336 552.989 297.39C550.916 305.443 551.127 313.915 553.597 321.856C553.891 322.74 553.985 323.68 553.87 324.606C553.755 325.531 553.435 326.419 552.933 327.205L543.638 341.471C543.453 341.738 543.352 342.054 543.346 342.379C543.341 342.704 543.432 343.023 543.608 343.296C543.783 343.569 544.036 343.784 544.334 343.914C544.632 344.043 544.961 344.081 545.28 344.024L562.053 341.052C562.975 340.903 563.919 340.964 564.814 341.23C565.709 341.497 566.533 341.961 567.224 342.59C574.606 348.895 583.836 352.629 593.523 353.228C603.21 353.827 612.83 351.259 620.931 345.912Z" fill="white"/>
<path d="M603.775 325.912H569.566C569.073 325.915 568.584 325.813 568.133 325.614C567.682 325.415 567.278 325.122 566.948 324.755C566.618 324.389 566.37 323.957 566.218 323.487C566.067 323.017 566.017 322.521 566.071 322.03L570.614 294.303H611.672L606.954 323.114C606.803 323.865 606.41 324.544 605.836 325.05C605.262 325.555 604.537 325.858 603.775 325.912Z" fill="#FFA600"/>
<path d="M610.379 302.765H569.321L570.719 294.303H611.776L610.379 302.765Z" fill="#FFA600"/>
<path d="M629.807 302.1H617.507C616.868 302.1 616.254 301.846 615.802 301.394C615.35 300.941 615.096 300.327 615.096 299.688C615.096 299.048 615.35 298.434 615.802 297.982C616.254 297.529 616.868 297.275 617.507 297.275H629.807C630.446 297.275 631.06 297.529 631.512 297.982C631.964 298.434 632.218 299.048 632.218 299.688C632.218 300.327 631.964 300.941 631.512 301.394C631.06 301.846 630.446 302.1 629.807 302.1Z" fill="#FFA600"/>
<path d="M628.095 312.52H615.795C615.155 312.52 614.542 312.266 614.09 311.813C613.638 311.361 613.384 310.747 613.384 310.107C613.384 309.467 613.638 308.854 614.09 308.401C614.542 307.949 615.155 307.695 615.795 307.695H628.095C628.734 307.695 629.347 307.949 629.8 308.401C630.252 308.854 630.506 309.467 630.506 310.107C630.506 310.747 630.252 311.361 629.8 311.813C629.347 312.266 628.734 312.52 628.095 312.52Z" fill="#FFA600"/>
<path d="M626.382 322.94H614.083C613.443 322.94 612.83 322.685 612.378 322.233C611.925 321.78 611.672 321.167 611.672 320.527C611.672 319.887 611.925 319.273 612.378 318.821C612.83 318.369 613.443 318.114 614.083 318.114H626.382C627.022 318.114 627.635 318.369 628.087 318.821C628.539 319.273 628.793 319.887 628.793 320.527C628.793 321.167 628.539 321.78 628.087 322.233C627.635 322.685 627.022 322.94 626.382 322.94Z" fill="#FFA600"/>
<path d="M590.741 325.912H581.376L586.548 294.303H595.912L590.741 325.912Z" fill="#FF005D"/>
<path opacity="0.4" d="M610.099 305.037H569.042L569.426 302.765H610.484L610.099 305.037Z" fill="black"/>
<path d="M85.5046 633.816L102.801 644.48H654.965L667.824 633.816H85.5046Z" fill="#343947"/>
<path d="M521.974 670.005C540.095 670.005 554.785 651.642 554.785 628.991C554.785 606.339 540.095 587.977 521.974 587.977C503.853 587.977 489.163 606.339 489.163 628.991C489.163 651.642 503.853 670.005 521.974 670.005Z" fill="#343947"/>
<path d="M333.528 670.005C351.649 670.005 366.339 651.642 366.339 628.991C366.339 606.339 351.649 587.977 333.528 587.977C315.407 587.977 300.717 606.339 300.717 628.991C300.717 651.642 315.407 670.005 333.528 670.005Z" fill="#343947"/>
<path d="M201.06 639.166L674.778 639.166V437.136L201.06 437.136V639.166Z" fill="#FF005D"/>
<path opacity="0.4" d="M317.419 437.101H201.025V639.131H317.419V437.101Z" fill="black"/>
<path opacity="0.4" d="M317.419 616.193H283.979V639.131H317.419V616.193Z" fill="black"/>
<path d="M155.11 670.005C173.232 670.005 187.922 651.642 187.922 628.991C187.922 606.339 173.232 587.977 155.11 587.977C136.989 587.977 122.299 606.339 122.299 628.991C122.299 651.642 136.989 670.005 155.11 670.005Z" fill="#343947"/>
<path d="M300.682 470.983V639.131H158.814L173.386 567.941L239.812 546.473L256.13 470.983H300.682Z" fill="#FFA600"/>
<path d="M239.812 551.333V596.683" stroke="#804E00" stroke-width="0.52" stroke-miterlimit="10"/>
<path d="M158.814 639.131H74.952L89.6279 567.941H173.49L158.814 639.131Z" fill="#FFE4A1"/>
<path d="M169.367 587.977H85.5046L89.6279 567.941H173.49L169.367 587.977Z" fill="#FFA600"/>
<path d="M108.357 587.977H85.5046L89.6279 567.941H112.48L108.357 587.977Z" fill="white"/>
<path d="M169.367 587.977H146.48L150.603 567.941H173.49L169.367 587.977Z" fill="white"/>
<path d="M111.642 571.997H149.799" stroke="#343947" stroke-width="0.76" stroke-miterlimit="10"/>
<path d="M110.838 575.983H148.961" stroke="#343947" stroke-width="0.76" stroke-miterlimit="10"/>
<path d="M110 579.934H148.157" stroke="#343947" stroke-width="0.76" stroke-miterlimit="10"/>
<path d="M109.196 583.921H147.318" stroke="#343947" stroke-width="0.76" stroke-miterlimit="10"/>
<path d="M73.9037 616.193H300.682V639.131H69.1515L73.9037 616.193Z" fill="#804E00"/>
<path d="M238.344 670.005C256.465 670.005 271.155 651.642 271.155 628.991C271.155 606.339 256.465 587.977 238.344 587.977C220.223 587.977 205.533 606.339 205.533 628.991C205.533 651.642 220.223 670.005 238.344 670.005Z" fill="#343947"/>
<path opacity="0.2" d="M73.9037 616.193H157.731L153.014 639.131H69.1515L73.9037 616.193Z" fill="white"/>
<path d="M155.984 546.473H239.812L173.49 567.941H89.6279L155.984 546.473Z" fill="#FFCA44"/>
<path d="M249.386 538.78L262.35 478.71H292.994V538.78H249.386Z" fill="#276F85"/>
<path d="M238.379 649.445C232.578 649.445 226.114 640.704 226.114 628.991C226.114 617.277 232.578 608.571 238.379 608.571C244.179 608.571 250.609 617.312 250.609 628.991C250.609 640.669 244.144 649.445 238.379 649.445Z" stroke="#636363" stroke-width="0.76" stroke-miterlimit="10"/>
<path d="M239.811 546.473H156.403L172.267 470.983H255.675L239.811 546.473Z" fill="#FFE4A1"/>
<path d="M158.011 538.78H241.454L254.068 478.71H170.66L158.011 538.78Z" fill="#38A2C2"/>
<path d="M154.901 508.116H141.378V542.382H154.901V508.116Z" fill="white"/>
<path d="M148.157 512.172V505.878C148.166 504.762 148.616 503.695 149.408 502.909C150.2 502.123 151.27 501.682 152.385 501.682H166.746" stroke="#343947" stroke-width="0.76" stroke-miterlimit="10"/>
<path d="M274.335 508.116H260.812V542.382H274.335V508.116Z" fill="white"/>
<path d="M268.01 512.172V505.878C268.001 504.762 267.552 503.695 266.76 502.909C265.968 502.123 264.898 501.682 263.782 501.682H257.388" stroke="#343947" stroke-width="0.76" stroke-miterlimit="10"/>
<path opacity="0.4" d="M317.454 639.131H674.778V616.194H317.454V639.131Z" fill="black"/>
<g opacity="0.4">
<path d="M595.144 587.976C577.008 587.976 562.333 606.333 562.333 628.991C562.338 632.398 562.689 635.795 563.381 639.131H626.907C627.598 635.795 627.949 632.398 627.955 628.991C627.955 606.333 613.279 587.976 595.144 587.976Z" fill="black"/>
<path d="M439.509 628.991C439.509 606.333 424.798 587.977 406.698 587.977C388.598 587.977 373.852 606.333 373.852 628.991C373.857 632.398 374.209 635.795 374.9 639.131H438.461C439.152 635.795 439.503 632.398 439.509 628.991Z" fill="black"/>
</g>
<path d="M201.025 459.619H674.778" stroke="#73002A" stroke-width="0.76" stroke-miterlimit="10"/>
<path d="M357.219 607.033C355.94 607.033 354.714 606.524 353.809 605.619C352.905 604.714 352.397 603.487 352.397 602.207V473.64C352.392 473.005 352.514 472.375 352.754 471.788C352.995 471.2 353.35 470.667 353.799 470.218C354.248 469.769 354.781 469.413 355.368 469.173C355.955 468.932 356.584 468.81 357.219 468.815C358.498 468.815 359.724 469.323 360.629 470.228C361.533 471.133 362.041 472.36 362.041 473.64V602.207C362.041 603.487 361.533 604.714 360.629 605.619C359.724 606.524 358.498 607.033 357.219 607.033Z" stroke="#73002A" stroke-width="0.52" stroke-miterlimit="10"/>
<path d="M403.483 607.033C402.204 607.033 400.978 606.524 400.073 605.619C399.169 604.714 398.661 603.487 398.661 602.207V473.64C398.661 472.36 399.169 471.133 400.073 470.228C400.978 469.323 402.204 468.815 403.483 468.815C404.119 468.81 404.75 468.932 405.339 469.172C405.928 469.412 406.464 469.767 406.915 470.216C407.367 470.664 407.725 471.198 407.97 471.785C408.214 472.373 408.34 473.003 408.34 473.64V602.207C408.34 602.844 408.214 603.474 407.97 604.062C407.725 604.65 407.367 605.183 406.915 605.632C406.464 606.08 405.928 606.435 405.339 606.675C404.75 606.916 404.119 607.037 403.483 607.033Z" stroke="#73002A" stroke-width="0.52" stroke-miterlimit="10"/>
<path d="M449.782 607.033C448.503 607.033 447.277 606.524 446.372 605.619C445.468 604.714 444.96 603.487 444.96 602.207V473.64C444.96 472.36 445.468 471.133 446.372 470.228C447.277 469.323 448.503 468.815 449.782 468.815C450.417 468.81 451.046 468.932 451.633 469.173C452.22 469.413 452.753 469.769 453.202 470.218C453.651 470.667 454.006 471.2 454.247 471.788C454.487 472.375 454.609 473.005 454.604 473.64V602.207C454.604 603.487 454.096 604.714 453.192 605.619C452.287 606.524 451.061 607.033 449.782 607.033Z" stroke="#73002A" stroke-width="0.52" stroke-miterlimit="10"/>
<path d="M496.186 607.033C494.907 607.033 493.681 606.524 492.776 605.619C491.872 604.714 491.364 603.487 491.364 602.207V473.64C491.364 472.36 491.872 471.133 492.776 470.228C493.681 469.323 494.907 468.815 496.186 468.815C496.821 468.81 497.45 468.932 498.037 469.173C498.624 469.413 499.157 469.769 499.606 470.218C500.055 470.667 500.41 471.2 500.65 471.788C500.891 472.375 501.013 473.005 501.008 473.64V602.207C501.008 603.487 500.5 604.714 499.596 605.619C498.691 606.524 497.465 607.033 496.186 607.033Z" stroke="#73002A" stroke-width="0.52" stroke-miterlimit="10"/>
<path d="M542.38 607.033C541.101 607.033 539.875 606.524 538.97 605.619C538.066 604.714 537.558 603.487 537.558 602.207V473.64C537.558 472.36 538.066 471.133 538.97 470.228C539.875 469.323 541.101 468.815 542.38 468.815C543.659 468.815 544.886 469.323 545.79 470.228C546.694 471.133 547.202 472.36 547.202 473.64V602.207C547.202 603.487 546.694 604.714 545.79 605.619C544.886 606.524 543.659 607.033 542.38 607.033Z" stroke="#73002A" stroke-width="0.52" stroke-miterlimit="10"/>
<path d="M588.679 607.033C587.4 607.033 586.174 606.524 585.27 605.619C584.365 604.714 583.857 603.487 583.857 602.207V473.64C583.857 472.36 584.365 471.133 585.27 470.228C586.174 469.323 587.4 468.815 588.679 468.815C589.958 468.815 591.185 469.323 592.089 470.228C592.993 471.133 593.501 472.36 593.501 473.64V602.207C593.501 603.487 592.993 604.714 592.089 605.619C591.185 606.524 589.958 607.033 588.679 607.033Z" stroke="#73002A" stroke-width="0.52" stroke-miterlimit="10"/>
<path d="M634.978 607.033C633.699 607.033 632.473 606.524 631.569 605.619C630.664 604.714 630.156 603.487 630.156 602.207V473.64C630.156 472.36 630.664 471.133 631.569 470.228C632.473 469.323 633.699 468.815 634.978 468.815C636.257 468.815 637.484 469.323 638.388 470.228C639.292 471.133 639.8 472.36 639.8 473.64V602.207C639.8 603.487 639.292 604.714 638.388 605.619C637.484 606.524 636.257 607.033 634.978 607.033Z" stroke="#73002A" stroke-width="0.52" stroke-miterlimit="10"/>
<path d="M416.761 670.005C434.882 670.005 449.572 651.642 449.572 628.991C449.572 606.339 434.882 587.977 416.761 587.977C398.64 587.977 383.95 606.339 383.95 628.991C383.95 651.642 398.64 670.005 416.761 670.005Z" fill="#343947"/>
<path d="M416.761 649.445C410.996 649.445 404.531 640.704 404.531 628.991C404.531 617.277 410.996 608.571 416.761 608.571C422.527 608.571 429.026 617.312 429.026 628.991C429.026 640.669 422.562 649.445 416.761 649.445Z" stroke="#636363" stroke-width="0.76" stroke-miterlimit="10"/>
<path d="M605.242 670.005C623.363 670.005 638.053 651.642 638.053 628.991C638.053 606.339 623.363 587.977 605.242 587.977C587.121 587.977 572.431 606.339 572.431 628.991C572.431 651.642 587.121 670.005 605.242 670.005Z" fill="#343947"/>
<path d="M605.242 649.445C599.442 649.445 592.977 640.704 592.977 628.991C592.977 617.277 599.442 608.571 605.242 608.571C611.043 608.571 617.472 617.312 617.472 628.991C617.472 640.669 611.008 649.445 605.242 649.445Z" stroke="#636363" stroke-width="0.76" stroke-miterlimit="10"/>
<path d="M182.68 569.375H239.812" stroke="#804E00" stroke-width="0.52" stroke-miterlimit="10"/>
<path d="M246.625 569.375H292.994" stroke="#804E00" stroke-width="0.52" stroke-miterlimit="10"/>
<path d="M968.436 589.83H856.829V667.173H968.436V589.83Z" fill="#FFA600"/>
<path d="M941.076 589.83H923.325V667.173H941.076V589.83Z" fill="#FF005D"/>
<path style="mix-blend-mode:multiply" opacity="0.6" d="M896 589.83H856.829V667.173H896V589.83Z" fill="url(#paint8_linear_134_202)"/>
<path style="mix-blend-mode:multiply" opacity="0.6" d="M968.436 616.054H856.829V624.096H968.436V616.054Z" fill="url(#paint9_linear_134_202)"/>
<path d="M912.633 512.486H801.026V589.83H912.633V512.486Z" fill="white"/>
<path d="M885.273 512.486H867.522V589.83H885.273V512.486Z" fill="#FFA600"/>
<path style="mix-blend-mode:multiply" opacity="0.6" d="M840.197 512.486H801.026V589.83H840.197V512.486Z" fill="url(#paint10_linear_134_202)"/>
<path style="mix-blend-mode:multiply" opacity="0.6" d="M912.633 512.486H801.026V538.71H912.633V512.486Z" fill="url(#paint11_linear_134_202)"/>
<path d="M918.992 531.473H853.16C852.178 531.472 851.215 531.201 850.377 530.689C849.539 530.177 848.858 529.444 848.408 528.57L840.197 512.382H912.633L920.879 528.57C921.04 528.883 921.116 529.233 921.098 529.584C921.08 529.935 920.97 530.275 920.778 530.57C920.587 530.865 920.32 531.103 920.007 531.262C919.693 531.42 919.343 531.493 918.992 531.473Z" fill="white"/>
<path d="M794.247 531.473H828.351C828.993 531.474 829.622 531.298 830.171 530.965C830.72 530.632 831.166 530.155 831.461 529.584L840.197 512.382H801.026L792.64 528.885C792.502 529.158 792.436 529.462 792.45 529.768C792.463 530.074 792.555 530.371 792.717 530.631C792.878 530.891 793.104 531.105 793.372 531.252C793.64 531.4 793.941 531.475 794.247 531.473Z" fill="white"/>
<path d="M885.308 589.83H773.701V667.173H885.308V589.83Z" fill="#FFA600"/>
<path d="M857.948 589.83H840.197V667.173H857.948V589.83Z" fill="#FF005D"/>
<path style="mix-blend-mode:multiply" opacity="0.6" d="M812.871 589.83H773.701V667.173H812.871V589.83Z" fill="url(#paint12_linear_134_202)"/>
<path style="mix-blend-mode:multiply" opacity="0.6" d="M885.308 616.054H773.701V624.096H885.308V616.054Z" fill="url(#paint13_linear_134_202)"/>
<path d="M756.055 497.941L709.266 488.465V477.381L756.055 486.857V497.941Z" fill="#5A9E70"/>
<path style="mix-blend-mode:multiply" opacity="0.6" d="M741.099 494.899L756.055 497.941V486.857L741.099 483.85V494.899Z" fill="url(#paint14_linear_134_202)"/>
<path d="M761.82 692.488C767.108 692.488 771.395 688.198 771.395 682.907C771.395 677.616 767.108 673.327 761.82 673.327C756.533 673.327 752.246 677.616 752.246 682.907C752.246 688.198 756.533 692.488 761.82 692.488Z" fill="#343947"/>
<path d="M775.727 682.907H766.747C766.747 681.563 766.213 680.273 765.263 679.322C764.313 678.371 763.024 677.837 761.68 677.837C760.337 677.837 759.048 678.371 758.098 679.322C757.148 680.273 756.614 681.563 756.614 682.907H747.773C747.773 679.198 749.246 675.64 751.867 673.018C754.488 670.395 758.043 668.921 761.75 668.921C765.457 668.921 769.012 670.395 771.634 673.018C774.255 675.64 775.727 679.198 775.727 682.907Z" fill="#343947"/>
<path d="M916.616 692.488C921.904 692.488 926.191 688.198 926.191 682.907C926.191 677.616 921.904 673.327 916.616 673.327C911.329 673.327 907.042 677.616 907.042 682.907C907.042 688.198 911.329 692.488 916.616 692.488Z" fill="#343947"/>
<path d="M930.663 682.907H921.683C921.683 681.563 921.149 680.273 920.199 679.322C919.249 678.371 917.96 677.837 916.616 677.837C915.272 677.837 913.984 678.371 913.033 679.322C912.083 680.273 911.549 681.563 911.549 682.907H902.569C902.569 679.198 904.042 675.64 906.663 673.018C909.284 670.395 912.839 668.921 916.546 668.921C920.253 668.921 923.808 670.395 926.429 673.018C929.051 675.64 930.523 679.198 930.523 682.907H930.663Z" fill="#343947"/>
<path d="M969.205 678.327H740.994C740.276 678.327 739.564 678.185 738.9 677.908C738.237 677.632 737.634 677.227 737.128 676.717C736.621 676.207 736.22 675.601 735.948 674.935C735.676 674.27 735.539 673.557 735.543 672.837C735.543 671.387 736.116 669.996 737.138 668.968C738.159 667.939 739.545 667.357 740.994 667.348H969.205C970.654 667.357 972.04 667.939 973.062 668.968C974.083 669.996 974.656 671.387 974.656 672.837C974.661 673.557 974.523 674.27 974.251 674.935C973.979 675.601 973.578 676.207 973.072 676.717C972.565 677.227 971.963 677.632 971.299 677.908C970.635 678.185 969.924 678.327 969.205 678.327Z" fill="#5A9E70"/>
<path d="M793.583 692.488C798.871 692.488 803.157 688.198 803.157 682.907C803.157 677.616 798.871 673.327 793.583 673.327C788.295 673.327 784.009 677.616 784.009 682.907C784.009 688.198 788.295 692.488 793.583 692.488Z" fill="white"/>
<path d="M807.63 682.907H798.65C798.65 681.563 798.116 680.273 797.166 679.322C796.216 678.371 794.927 677.837 793.583 677.837C792.239 677.837 790.951 678.371 790 679.322C789.05 680.273 788.516 681.563 788.516 682.907H779.536C779.536 679.198 781.009 675.64 783.63 673.018C786.251 670.395 789.806 668.921 793.513 668.921C797.22 668.921 800.775 670.395 803.396 673.018C806.018 675.64 807.49 679.198 807.49 682.907H807.63Z" fill="#343947"/>
<path d="M957.953 682.907C957.96 684.804 957.404 686.659 956.357 688.239C955.309 689.819 953.816 691.053 952.067 691.783C950.318 692.514 948.392 692.709 946.533 692.343C944.673 691.977 942.964 691.067 941.621 689.729C940.279 688.391 939.363 686.684 938.991 684.824C938.619 682.965 938.807 681.037 939.53 679.284C940.254 677.531 941.481 676.033 943.056 674.979C944.631 673.925 946.484 673.362 948.379 673.362C950.912 673.362 953.342 674.366 955.137 676.155C956.931 677.945 957.944 680.372 957.953 682.907Z" fill="white"/>
<path d="M962.461 682.907H953.446C953.341 681.64 952.763 680.458 951.828 679.597C950.892 678.736 949.668 678.258 948.397 678.258C947.126 678.258 945.901 678.736 944.966 679.597C944.031 680.458 943.453 681.64 943.348 682.907H934.333C934.333 679.175 935.814 675.595 938.452 672.956C941.089 670.317 944.667 668.834 948.397 668.834C952.127 668.834 955.704 670.317 958.342 672.956C960.98 675.595 962.461 679.175 962.461 682.907Z" fill="#343947"/>
<path d="M760.458 667.173V473.116C760.348 471.74 759.724 470.456 758.71 469.52C757.697 468.584 756.368 468.064 754.989 468.064C753.61 468.064 752.281 468.584 751.268 469.52C750.254 470.456 749.63 471.74 749.521 473.116V667.173H760.458Z" fill="#5A9E70"/>
<path d="M658.39 465.773C656.304 465.185 654.468 463.93 653.162 462.2C651.856 460.47 651.152 458.36 651.157 456.192C651.158 455.354 650.886 454.538 650.381 453.869C649.876 453.2 649.167 452.715 648.361 452.486C647.999 452.417 647.626 452.435 647.272 452.538C646.918 452.641 646.593 452.826 646.324 453.078C646.055 453.33 645.849 453.642 645.724 453.989C645.598 454.336 645.556 454.707 645.601 455.073V470.948C645.593 472.585 646.122 474.179 647.107 475.486C648.091 476.794 649.477 477.742 651.052 478.185L718.456 491.822V477.836L658.39 465.773Z" fill="#636363"/>
<path style="mix-blend-mode:multiply" opacity="0.6" d="M749.521 638.222V667.173H760.458V624.096L749.521 638.222Z" fill="url(#paint15_linear_134_202)"/>
<path d="M773.701 589.83H968.227" stroke="#343947" stroke-width="0.24" stroke-miterlimit="10"/>
<path d="M885.308 589.83V658.327" stroke="#343947" stroke-width="0.24" stroke-miterlimit="10"/>
<path d="M653.813 672.138L656.398 710.005C656.472 710.95 656.338 711.9 656.006 712.788C655.674 713.676 655.152 714.48 654.476 715.145L648.886 720.74C647.07 722.541 644.758 723.759 642.247 724.236C637.215 725.18 628.759 727.488 628.654 732.243H673.276C673.891 732.241 674.497 732.089 675.04 731.799C675.583 731.51 676.047 731.091 676.391 730.581C676.736 730.071 676.951 729.484 677.016 728.872C677.082 728.26 676.998 727.64 676.77 727.068L670.83 711.928L671.808 672.103L653.813 672.138Z" fill="#FF9C87"/>
<path d="M713.215 672.138L721.671 709.096C721.947 710.3 721.913 711.555 721.571 712.741C721.228 713.928 720.589 715.008 719.714 715.88L714.857 720.74C713.042 722.541 710.73 723.759 708.218 724.236C703.151 725.18 694.73 727.488 694.625 732.243H739.247C739.86 732.233 740.461 732.076 740.999 731.784C741.538 731.492 741.998 731.074 742.341 730.566C742.684 730.058 742.899 729.475 742.969 728.866C743.039 728.257 742.961 727.641 742.742 727.068L736.801 711.928L731.176 672.103L713.215 672.138Z" fill="#FF9C87"/>
<path d="M666.427 486.227C666.427 486.227 643.644 583.851 648.641 675.914H677.504C677.504 675.914 677.783 644.725 675.197 618.186C675.197 618.186 690.852 548.256 694.486 535.459C698.12 522.661 707.17 506.437 703.396 486.227H666.427Z" fill="#636363"/>
<path style="mix-blend-mode:multiply" opacity="0.3" d="M698.854 522.626L648.99 613.186C647.737 634.074 647.62 655.014 648.641 675.914H677.504C677.504 675.914 677.783 644.725 675.197 618.186C675.197 618.186 690.852 548.256 694.486 535.459C695.604 531.473 697.246 527.242 698.854 522.626Z" fill="url(#paint16_linear_134_202)"/>
<path d="M684.317 486.227C684.317 486.227 683.339 586.018 708.777 680.18H737.64C737.64 680.18 730.966 648.257 722.475 621.124C722.475 621.124 722.475 549.724 723.313 536.577C724.152 523.43 729.568 506.892 721.287 486.227H684.317Z" fill="#636363"/>
<path d="M715.311 486.227C715.311 486.227 719.225 515.843 717.408 529.375C715.591 542.906 712.9 620.284 712.9 620.284C712.9 620.284 726.109 662.767 729.708 680.32" stroke="#BABABA" stroke-width="0.27" stroke-miterlimit="10"/>
<path d="M700.077 486.227C700.077 486.227 696.932 508.745 717.723 513.745" stroke="#BABABA" stroke-width="0.27" stroke-miterlimit="10"/>
<path d="M742.777 727.278L739.282 718.117C736.108 719.831 732.523 720.633 728.921 720.435C725.32 720.238 721.844 719.049 718.876 716.998L714.962 720.914C713.147 722.716 710.835 723.934 708.323 724.411C703.256 725.355 694.835 727.663 694.73 732.418H739.352C739.954 732.395 740.542 732.23 741.068 731.935C741.594 731.641 742.043 731.225 742.377 730.724C742.711 730.222 742.922 729.648 742.991 729.049C743.061 728.45 742.987 727.843 742.777 727.278Z" fill="#343947"/>
<path d="M676.805 727.278L673.52 718.922C670.098 720.075 666.479 720.53 662.878 720.26C659.277 719.99 655.766 718.999 652.554 717.348L649.06 720.845C647.245 722.646 644.933 723.864 642.421 724.341C637.389 725.285 628.933 727.593 628.828 732.348H673.45C674.041 732.319 674.616 732.15 675.13 731.857C675.643 731.564 676.081 731.155 676.408 730.661C676.734 730.168 676.94 729.605 677.009 729.017C677.078 728.43 677.008 727.834 676.805 727.278Z" fill="#343947"/>
<path style="mix-blend-mode:multiply" opacity="0.3" d="M721.322 486.227H666.427C666.427 486.227 664.4 494.934 661.709 509.479C684.003 516.472 711.747 505.738 724.991 499.444C724.258 494.917 723.027 490.484 721.322 486.227Z" fill="url(#paint17_linear_134_202)"/>
<path d="M684.457 499.025C684.457 499.025 685.715 536.647 687.951 557.417" stroke="#BABABA" stroke-width="0.27" stroke-miterlimit="10"/>
<path d="M683.793 399.024L656.223 426.402L668.244 439.968L691.271 412.171L683.793 399.024Z" fill="#FF9C87"/>
<path d="M671.459 336.121C670.084 337.428 668.99 339.001 668.242 340.744C667.494 342.487 667.108 344.364 667.108 346.261C667.108 348.158 667.494 350.036 668.242 351.779C668.99 353.522 670.084 355.095 671.459 356.401C679.251 365.422 672.647 376.996 670.236 380.877C667.824 384.758 663.911 395.108 673.555 395.108H702.523C702.523 395.108 711.852 367.136 703.746 353.15C695.639 339.163 671.459 336.121 671.459 336.121Z" fill="#343947"/>
<path d="M674.044 346.331C674.044 346.331 673.136 357.555 668.244 359.268C669.047 361.262 671.948 361.576 671.948 361.576C671.948 361.576 672.647 371.576 675.058 374.304C677.469 377.031 685.156 375.283 687.672 377.59C690.188 379.898 689.978 390.038 689.978 390.038C694.843 391.511 700.034 391.511 704.899 390.038C704.899 370.842 705.842 346.331 674.044 346.331Z" fill="#FF9C87"/>
<path style="mix-blend-mode:multiply" opacity="0.3" d="M701.963 362.625C701.794 362.771 701.642 362.935 701.509 363.115C695.324 371.716 681.976 376.052 677.049 375.387C680.299 376.471 685.75 375.737 687.777 377.59C688.822 378.967 689.442 380.62 689.559 382.346L704.724 376.646C704.474 371.865 703.545 367.144 701.963 362.625Z" fill="url(#paint18_linear_134_202)"/>
<path d="M689.978 390.038C689.978 390.038 674.114 411.017 672.856 423.779C671.458 438.01 676.7 445.038 663.457 489.095C663.457 489.095 686.658 499.13 726.353 489.095C722.149 475.851 721.714 461.698 725.095 448.22C728.59 431.996 729.568 404.933 719.155 390.038H689.978Z" fill="#FF005D"/>
<path style="mix-blend-mode:multiply" opacity="0.6" d="M726.318 489.095C718.98 464.619 672.716 442.661 672.612 431.752C672.821 442.241 674.079 453.78 663.457 489.095C663.457 489.095 686.658 499.13 726.318 489.095Z" fill="url(#paint19_linear_134_202)"/>
<path d="M670.55 420.842H581.306V483.675H670.55V420.842Z" fill="white"/>
<path style="mix-blend-mode:multiply" opacity="0.3" d="M608.212 420.842H581.306V483.675H608.212V420.842Z" fill="url(#paint20_linear_134_202)"/>
<path d="M645.671 420.842H633.056V483.675H645.671V420.842Z" fill="#FFA600"/>
<path style="mix-blend-mode:multiply" opacity="0.3" d="M606.78 483.71L670.55 441.787V483.675L606.78 483.71Z" fill="url(#paint21_linear_134_202)"/>
<path d="M671.458 336.121C671.727 339.648 672.602 343.102 674.044 346.331C676.56 352.205 689.768 356.611 694.136 362.136C698.923 368.185 698.469 376.611 698.784 383.325C699.098 390.038 698.19 393.814 705.772 394.723C711.82 395.183 717.894 395.183 723.942 394.723C728.904 394.723 729.953 389.304 726.493 381.646C722.6 373.354 720.402 364.367 720.029 355.212C719.714 340.177 712.831 326.891 697.491 326.891C676.455 326.891 671.458 336.121 671.458 336.121Z" fill="#343947"/>
<path d="M633.895 491.123C652.285 489.108 670.48 485.6 688.301 480.633C692.514 479.416 696.376 477.211 699.566 474.2C702.757 471.19 705.184 467.462 706.646 463.325L724.362 413.22C724.892 411.722 725.116 410.133 725.022 408.547C724.927 406.961 724.516 405.409 723.813 403.985C723.109 402.56 722.127 401.292 720.925 400.253C719.723 399.215 718.325 398.428 716.814 397.94C714.534 397.215 712.06 397.408 709.92 398.479C707.78 399.549 706.141 401.413 705.353 403.674L684.387 464.444L630.75 482.906C630.75 482.906 618.031 477.346 616.424 477.766C614.816 478.185 621.036 483.78 621.036 483.78H606.814C606.814 483.78 611.497 497.976 633.895 491.123Z" fill="#FF9C87"/>
<path d="M670.55 433.36H581.306" stroke="#343947" stroke-width="0.26" stroke-miterlimit="10"/>
<path d="M608.212 424.863V476.927" stroke="#343947" stroke-width="0.26" stroke-miterlimit="10"/>
<path d="M519.004 709.236H535.811C536.274 710.873 537.093 712.387 538.211 713.669C539.329 714.951 540.717 715.968 542.275 716.649C546.643 718.292 564.534 720.39 569.81 727.803C570.086 728.251 570.236 728.766 570.245 729.293C570.254 729.82 570.121 730.339 569.86 730.797C569.599 731.254 569.22 731.633 568.762 731.894C568.305 732.155 567.786 732.287 567.259 732.278H519.458C518.959 732.281 518.467 732.171 518.017 731.956C517.567 731.74 517.173 731.425 516.863 731.034C516.553 730.643 516.336 730.187 516.229 729.7C516.122 729.212 516.126 728.707 516.243 728.222C517.805 722.004 518.73 715.642 519.004 709.236Z" fill="#343947"/>
<path d="M431.018 707.628H448.28C448.28 707.628 445.414 714.621 450.516 716.649C454.849 718.292 472.739 720.39 478.016 727.803C478.292 728.251 478.442 728.766 478.451 729.293C478.459 729.82 478.326 730.339 478.065 730.797C477.805 731.254 477.426 731.633 476.968 731.894C476.511 732.155 475.991 732.287 475.465 732.278H429.795C429.113 732.277 428.442 732.109 427.841 731.787C427.24 731.466 426.727 731.002 426.347 730.435C425.968 729.869 425.733 729.218 425.664 728.539C425.595 727.861 425.693 727.175 425.951 726.544C428.665 720.559 430.376 714.168 431.018 707.628Z" fill="#343947"/>
<path d="M526.516 477.591L546.818 604.9C547.506 609.082 547.659 613.336 547.272 617.557L538.117 710.81H515.719C513.322 703.624 511.843 696.164 511.316 688.607C512.338 679.122 511.519 669.529 508.905 660.355C505.131 647.837 508.346 634.55 509.464 626.858C510.582 619.165 511.246 605.284 511.246 605.284C511.246 605.284 491.993 531.857 489.896 522.626C487.8 513.395 481.161 483.43 487.206 477.591H526.516Z" fill="#276F85"/>
<path style="mix-blend-mode:multiply" opacity="0.3" d="M489.966 522.626C492.063 531.892 511.316 605.284 511.316 605.284C511.316 605.284 510.687 619.27 509.534 626.858C508.381 634.445 505.201 647.837 508.975 660.355C511.589 669.529 512.408 679.122 511.386 688.607C511.913 696.164 513.392 703.624 515.789 710.81H538.117L547.202 617.697C547.589 613.476 547.436 609.222 546.748 605.04L544.162 588.676L485.703 498.5C486.682 507.976 488.883 517.941 489.966 522.626Z" fill="url(#paint22_linear_134_202)"/>
<path d="M493.146 522.312L521.659 596.088C524.428 603.314 525.769 611.009 525.608 618.746L523.476 710.81" stroke="#1A4B59" stroke-width="0.27" stroke-miterlimit="10"/>
<path d="M501.427 477.591L487.45 604.165C486.971 608.466 485.974 612.692 484.48 616.753L450.271 709.236H427.838C427.406 701.843 427.947 694.425 429.445 687.173C431.856 679.166 435.071 671.543 434.652 659.201C434.233 646.858 441.081 633.536 444.261 625.949C447.441 618.361 451.879 604.48 451.879 604.48C451.879 604.48 452.403 531.612 452.822 522.382C453.241 513.151 454.674 483.465 462.292 477.661L501.427 477.591Z" fill="#276F85"/>
<path d="M466.59 479.584C466.59 479.584 457.505 523.326 461.418 597.557C461.653 601.541 461.009 605.528 459.531 609.235C453.521 624.026 437.552 667.033 435.351 709.236" stroke="#1A4B59" stroke-width="0.27" stroke-miterlimit="10"/>
<path d="M474.207 481.297C474.207 481.297 474.207 501.507 463.13 504.479" stroke="#1A4B59" stroke-width="0.27" stroke-miterlimit="10"/>
<path d="M510.163 481.297C510.163 481.297 512.155 507.207 498.038 509.025" stroke="#1A4B59" stroke-width="0.27" stroke-miterlimit="10"/>
<path d="M500.624 484.969L494.928 536.123" stroke="#1A4B59" stroke-width="0.27" stroke-miterlimit="10"/>
<path style="mix-blend-mode:multiply" opacity="0.6" d="M526.516 477.591H462.187C459.411 480.484 457.551 484.133 456.841 488.081L529.486 495.913L526.516 477.591Z" fill="url(#paint23_linear_134_202)"/>
<path d="M449.852 432.94C449.852 432.94 441.815 452.346 432.59 462.941C423.365 473.535 382.273 485.109 382.273 485.109C382.273 485.109 355.821 491.927 354.074 488.605C353.117 487.084 352.442 485.402 352.082 483.64L361.726 483.325L370.008 478.081L362.775 476.157L363.823 473.605C363.823 473.605 375.704 470.878 381.294 476.332L420.255 453.325L432.94 424.723L449.852 432.94Z" fill="#FF9C87"/>
<path style="mix-blend-mode:multiply" opacity="0.6" d="M449.852 432.94L433.045 424.863L429.026 433.919L443.003 447.031C447.266 439.479 449.852 432.94 449.852 432.94Z" fill="url(#paint24_linear_134_202)"/>
<path d="M538.956 384.968C538.956 384.968 544.302 389.828 551.5 405.248L536.475 424.863L525.084 410.877L538.956 384.968Z" fill="#38A2C2"/>
<path d="M514.356 334.513C514.073 337.098 514.658 339.704 516.018 341.919C517.378 344.135 519.437 345.835 521.869 346.751L516.662 348.884L517.152 360.143C517.185 360.824 517.079 361.505 516.841 362.145C516.603 362.784 516.238 363.368 515.767 363.862C515.297 364.356 514.731 364.749 514.104 365.017C513.477 365.285 512.802 365.423 512.12 365.422H508.626C508.267 365.419 507.912 365.493 507.584 365.639C507.256 365.785 506.964 365.999 506.725 366.267C506.487 366.535 506.309 366.851 506.203 367.194C506.097 367.537 506.065 367.898 506.11 368.254L507.857 384.373H482.733V364.513L483.152 334.443L514.356 334.513Z" fill="#FF9C87"/>
<path style="mix-blend-mode:multiply" opacity="0.2" d="M506.11 368.324C506.065 367.968 506.097 367.607 506.203 367.264C506.309 366.921 506.487 366.605 506.725 366.337C506.964 366.069 507.256 365.855 507.584 365.709C507.912 365.563 508.267 365.489 508.626 365.492H512.12C512.82 365.491 513.512 365.336 514.146 365.038C506.307 363.143 498.974 359.564 492.657 354.548C489.589 355.931 486.233 356.555 482.873 356.366V364.723C498.387 380.982 506.774 373.919 506.774 373.919L506.11 368.324Z" fill="url(#paint25_linear_134_202)"/>
<path d="M513.413 378.01L511.141 373.779L498.317 377.276L495.837 385.073L493.321 377.276L480.532 373.779L478.26 378.01C469.527 379.451 460.967 381.794 452.717 385.003C455.827 408.779 457.959 466.052 458.378 478.78C458.405 479.466 458.697 480.116 459.192 480.591C459.687 481.067 460.347 481.333 461.034 481.332H523.092C524.647 481.331 526.145 480.75 527.295 479.702C528.445 478.655 529.164 477.217 529.312 475.668C530.989 458.57 536.056 407.171 538.956 385.003C530.704 381.801 522.144 379.458 513.413 378.01Z" fill="#38A2C2"/>
<path d="M490.945 379.863L487.485 388.115L479.798 380.597" stroke="#343947" stroke-width="0.69" stroke-miterlimit="10"/>
<path d="M500.763 379.863L504.223 388.115L511.875 380.597" stroke="#343947" stroke-width="0.69" stroke-miterlimit="10"/>
<path d="M452.717 384.968C445.729 387.52 427.698 427.556 427.698 427.556L450.376 437.101L461.488 416.122L452.717 384.968Z" fill="#38A2C2"/>
<path d="M511.141 373.779L498.317 377.276L495.837 385.073L493.321 377.276L480.532 373.779L478.26 378.01C469.527 379.451 460.967 381.794 452.717 385.003C454.115 395.667 455.303 412.975 456.212 430.248H533.854C535.636 413.115 537.523 395.667 538.921 385.003C530.669 381.801 522.109 379.458 513.378 378.01L511.141 373.779Z" fill="#276F85"/>
<path opacity="0.4" d="M559.292 465.353H510.163L524.28 393.884H573.409L559.292 465.353Z" fill="black"/>
<path d="M563.381 461.192H514.251L528.403 389.723H577.533L563.381 461.192Z" fill="white"/>
<path d="M565.757 409.094C568.373 411.121 570.36 413.849 571.488 416.961C569.461 415.142 567.26 413.526 564.918 412.136L562.612 419.723L565.338 423.5C565.338 423.5 566.421 429.549 570.474 429.479C574.528 429.409 576.414 423.36 576.694 419.723C576.355 415.97 575.337 412.309 573.689 408.919L573.06 412.591C571.377 410.009 569.176 407.806 566.596 406.122L565.757 409.094Z" fill="#FF9C87"/>
<path d="M495.837 384.968V481.297" stroke="#343947" stroke-width="0.26" stroke-miterlimit="10"/>
<path d="M493.321 377.171L489.757 387.171L478.26 378.01" stroke="#343947" stroke-width="0.26" stroke-miterlimit="10"/>
<path d="M498.317 377.171L501.882 387.171L513.413 378.01" stroke="#343947" stroke-width="0.26" stroke-miterlimit="10"/>
<path d="M488.568 352.835C487.101 350.038 489.617 344.338 492.517 344.338C495.417 344.338 496.011 348.709 496.011 348.849C498.555 343.91 500.39 338.636 501.462 333.184H476.478C476.478 333.184 473.683 348.045 478.086 357.66C479.326 360.19 480.901 362.542 482.768 364.653C486.679 361.908 490.044 358.457 492.692 354.478C492.314 354.645 491.906 354.735 491.493 354.743C491.08 354.75 490.669 354.675 490.285 354.522C489.902 354.369 489.552 354.141 489.257 353.851C488.962 353.562 488.728 353.216 488.568 352.835Z" fill="#343947"/>
<path style="mix-blend-mode:multiply" opacity="0.6" d="M514.356 334.513H501.218C501.427 333.674 501.497 333.184 501.497 333.184H476.513C476.112 335.604 475.843 338.043 475.71 340.492L516.558 342.905C514.918 340.427 514.144 337.477 514.356 334.513Z" fill="url(#paint26_linear_134_202)"/>
<path d="M474.696 337.031H530.605C530.605 337.031 530.605 331.471 515.439 331.471C515.439 331.471 509.429 314.478 496.815 314.478C480.567 314.478 474.696 325.177 474.696 337.031Z" fill="#FF005D"/>
<path d="M390.729 732.278H589.763" stroke="#343947" stroke-width="0.5" stroke-miterlimit="10"/>
<path d="M611.497 732.278H775.867" stroke="#343947" stroke-width="0.5" stroke-miterlimit="10"/>
<path d="M747.773 692.488H972.525" stroke="#343947" stroke-width="0.5" stroke-miterlimit="10"/>
</g>
<defs>
<linearGradient id="paint0_linear_134_202" x1="38.9261" y1="546.508" x2="387.584" y2="546.508" gradientUnits="userSpaceOnUse">
<stop stop-color="#FF8CB6"/>
<stop offset="0.15" stop-color="#FF91AD"/>
<stop offset="0.41" stop-color="#FF9F94"/>
<stop offset="0.73" stop-color="#FFB56B"/>
<stop offset="1" stop-color="#FFCA44"/>
</linearGradient>
<linearGradient id="paint1_linear_134_202" x1="801.026" y1="485.913" x2="801.026" y2="670.11" gradientUnits="userSpaceOnUse">
<stop stop-color="#FF8CB6"/>
<stop offset="0.15" stop-color="#FF91AD"/>
<stop offset="0.41" stop-color="#FF9F94"/>
<stop offset="0.73" stop-color="#FFB56B"/>
<stop offset="1" stop-color="#FFCA44"/>
</linearGradient>
<linearGradient id="paint2_linear_134_202" x1="634.07" y1="207.134" x2="764.825" y2="207.134" gradientUnits="userSpaceOnUse">
<stop stop-color="white"/>
<stop offset="0.12" stop-color="#DADADA"/>
<stop offset="0.45" stop-color="#7E7E7E"/>
<stop offset="0.71" stop-color="#3A3A3A"/>
<stop offset="0.9" stop-color="#101010"/>
<stop offset="1"/>
</linearGradient>
<linearGradient id="paint3_linear_134_202" x1="386.736" y1="83.4304" x2="539.435" y2="83.4304" gradientUnits="userSpaceOnUse">
<stop stop-color="#FF8CB6"/>
<stop offset="0.15" stop-color="#FF91AD"/>
<stop offset="0.41" stop-color="#FF9F94"/>
<stop offset="0.73" stop-color="#FFB56B"/>
<stop offset="1" stop-color="#FFCA44"/>
</linearGradient>
<linearGradient id="paint4_linear_134_202" x1="721.671" y1="164.267" x2="721.671" y2="206.89" gradientUnits="userSpaceOnUse">
<stop stop-color="white"/>
<stop offset="0.14" stop-color="#F4F4F4"/>
<stop offset="0.71" stop-color="#CACACA"/>
<stop offset="1" stop-color="#BABABA"/>
</linearGradient>
<linearGradient id="paint5_linear_134_202" x1="721.671" y1="233.638" x2="721.671" y2="202.624" gradientUnits="userSpaceOnUse">
<stop stop-color="white"/>
<stop offset="0.14" stop-color="#F4F4F4"/>
<stop offset="0.71" stop-color="#CACACA"/>
<stop offset="1" stop-color="#BABABA"/>
</linearGradient>
<linearGradient id="paint6_linear_134_202" x1="780.445" y1="347.38" x2="837.611" y2="347.38" gradientUnits="userSpaceOnUse">
<stop stop-color="white"/>
<stop offset="0.12" stop-color="#DADADA"/>
<stop offset="0.45" stop-color="#7E7E7E"/>
<stop offset="0.71" stop-color="#3A3A3A"/>
<stop offset="0.9" stop-color="#101010"/>
<stop offset="1"/>
</linearGradient>
<linearGradient id="paint7_linear_134_202" x1="593.501" y1="286.576" x2="593.501" y2="390.912" gradientUnits="userSpaceOnUse">
<stop stop-color="white"/>
<stop offset="0.12" stop-color="#DADADA"/>
<stop offset="0.45" stop-color="#7E7E7E"/>
<stop offset="0.71" stop-color="#3A3A3A"/>
<stop offset="0.9" stop-color="#101010"/>
<stop offset="1"/>
</linearGradient>
<linearGradient id="paint8_linear_134_202" x1="868.5" y1="628.501" x2="930.419" y2="628.501" gradientUnits="userSpaceOnUse">
<stop stop-color="white"/>
<stop offset="0.1" stop-color="#D0D0D0"/>
<stop offset="0.23" stop-color="#999999"/>
<stop offset="0.37" stop-color="#6A6A6A"/>
<stop offset="0.5" stop-color="#444444"/>
<stop offset="0.63" stop-color="#262626"/>
<stop offset="0.76" stop-color="#111111"/>
<stop offset="0.88" stop-color="#040404"/>
<stop offset="1"/>
</linearGradient>
<linearGradient id="paint9_linear_134_202" x1="912.633" y1="627.173" x2="912.633" y2="603.816" gradientUnits="userSpaceOnUse">
<stop stop-color="white"/>
<stop offset="0.1" stop-color="#D0D0D0"/>
<stop offset="0.23" stop-color="#999999"/>
<stop offset="0.37" stop-color="#6A6A6A"/>
<stop offset="0.5" stop-color="#444444"/>
<stop offset="0.63" stop-color="#262626"/>
<stop offset="0.76" stop-color="#111111"/>
<stop offset="0.88" stop-color="#040404"/>
<stop offset="1"/>
</linearGradient>
<linearGradient id="paint10_linear_134_202" x1="808.154" y1="551.158" x2="847.325" y2="551.158" gradientUnits="userSpaceOnUse">
<stop stop-color="white"/>
<stop offset="0.1" stop-color="#D0D0D0"/>
<stop offset="0.23" stop-color="#999999"/>
<stop offset="0.37" stop-color="#6A6A6A"/>
<stop offset="0.5" stop-color="#444444"/>
<stop offset="0.63" stop-color="#262626"/>
<stop offset="0.76" stop-color="#111111"/>
<stop offset="0.88" stop-color="#040404"/>
<stop offset="1"/>
</linearGradient>
<linearGradient id="paint11_linear_134_202" x1="856.829" y1="553.466" x2="856.829" y2="516.263" gradientUnits="userSpaceOnUse">
<stop stop-color="white"/>
<stop offset="0.1" stop-color="#D0D0D0"/>
<stop offset="0.23" stop-color="#999999"/>
<stop offset="0.37" stop-color="#6A6A6A"/>
<stop offset="0.5" stop-color="#444444"/>
<stop offset="0.63" stop-color="#262626"/>
<stop offset="0.76" stop-color="#111111"/>
<stop offset="0.88" stop-color="#040404"/>
<stop offset="1"/>
</linearGradient>
<linearGradient id="paint12_linear_134_202" x1="785.372" y1="628.501" x2="847.255" y2="628.501" gradientUnits="userSpaceOnUse">
<stop stop-color="white"/>
<stop offset="0.1" stop-color="#D0D0D0"/>
<stop offset="0.23" stop-color="#999999"/>
<stop offset="0.37" stop-color="#6A6A6A"/>
<stop offset="0.5" stop-color="#444444"/>
<stop offset="0.63" stop-color="#262626"/>
<stop offset="0.76" stop-color="#111111"/>
<stop offset="0.88" stop-color="#040404"/>
<stop offset="1"/>
</linearGradient>
<linearGradient id="paint13_linear_134_202" x1="829.504" y1="627.173" x2="829.504" y2="603.816" gradientUnits="userSpaceOnUse">
<stop stop-color="white"/>
<stop offset="0.1" stop-color="#D0D0D0"/>
<stop offset="0.23" stop-color="#999999"/>
<stop offset="0.37" stop-color="#6A6A6A"/>
<stop offset="0.5" stop-color="#444444"/>
<stop offset="0.63" stop-color="#262626"/>
<stop offset="0.76" stop-color="#111111"/>
<stop offset="0.88" stop-color="#040404"/>
<stop offset="1"/>
</linearGradient>
<linearGradient id="paint14_linear_134_202" x1="732.853" y1="490.878" x2="781.353" y2="490.878" gradientUnits="userSpaceOnUse">
<stop stop-color="white"/>
<stop offset="0.1" stop-color="#D0D0D0"/>
<stop offset="0.23" stop-color="#999999"/>
<stop offset="0.37" stop-color="#6A6A6A"/>
<stop offset="0.5" stop-color="#444444"/>
<stop offset="0.63" stop-color="#262626"/>
<stop offset="0.76" stop-color="#111111"/>
<stop offset="0.88" stop-color="#040404"/>
<stop offset="1"/>
</linearGradient>
<linearGradient id="paint15_linear_134_202" x1="754.972" y1="618.047" x2="754.972" y2="669.096" gradientUnits="userSpaceOnUse">
<stop stop-color="white"/>
<stop offset="0.1" stop-color="#D0D0D0"/>
<stop offset="0.23" stop-color="#999999"/>
<stop offset="0.37" stop-color="#6A6A6A"/>
<stop offset="0.5" stop-color="#444444"/>
<stop offset="0.63" stop-color="#262626"/>
<stop offset="0.76" stop-color="#111111"/>
<stop offset="0.88" stop-color="#040404"/>
<stop offset="1"/>
</linearGradient>
<linearGradient id="paint16_linear_134_202" x1="639.94" y1="677.837" x2="714.823" y2="556.026" gradientUnits="userSpaceOnUse">
<stop stop-color="white"/>
<stop offset="0.12" stop-color="#DADADA"/>
<stop offset="0.45" stop-color="#7E7E7E"/>
<stop offset="0.71" stop-color="#3A3A3A"/>
<stop offset="0.9" stop-color="#101010"/>
<stop offset="1"/>
</linearGradient>
<linearGradient id="paint17_linear_134_202" x1="693.333" y1="536.438" x2="693.333" y2="487.136" gradientUnits="userSpaceOnUse">
<stop stop-color="white"/>
<stop offset="0.12" stop-color="#DADADA"/>
<stop offset="0.45" stop-color="#7E7E7E"/>
<stop offset="0.71" stop-color="#3A3A3A"/>
<stop offset="0.9" stop-color="#101010"/>
<stop offset="1"/>
</linearGradient>
<linearGradient id="paint18_linear_134_202" x1="690.782" y1="387.94" x2="690.782" y2="367.136" gradientUnits="userSpaceOnUse">
<stop stop-color="white"/>
<stop offset="0.12" stop-color="#DADADA"/>
<stop offset="0.45" stop-color="#7E7E7E"/>
<stop offset="0.71" stop-color="#3A3A3A"/>
<stop offset="0.9" stop-color="#101010"/>
<stop offset="1"/>
</linearGradient>
<linearGradient id="paint19_linear_134_202" x1="727.926" y1="506.018" x2="644.233" y2="442.398" gradientUnits="userSpaceOnUse">
<stop stop-color="white"/>
<stop offset="0.1" stop-color="#D0D0D0"/>
<stop offset="0.23" stop-color="#999999"/>
<stop offset="0.37" stop-color="#6A6A6A"/>
<stop offset="0.5" stop-color="#444444"/>
<stop offset="0.63" stop-color="#262626"/>
<stop offset="0.76" stop-color="#111111"/>
<stop offset="0.88" stop-color="#040404"/>
<stop offset="1"/>
</linearGradient>
<linearGradient id="paint20_linear_134_202" x1="581.306" y1="452.276" x2="608.212" y2="452.276" gradientUnits="userSpaceOnUse">
<stop stop-color="white"/>
<stop offset="0.12" stop-color="#DADADA"/>
<stop offset="0.45" stop-color="#7E7E7E"/>
<stop offset="0.71" stop-color="#3A3A3A"/>
<stop offset="0.9" stop-color="#101010"/>
<stop offset="1"/>
</linearGradient>
<linearGradient id="paint21_linear_134_202" x1="643.05" y1="459.304" x2="639.411" y2="479.548" gradientUnits="userSpaceOnUse">
<stop stop-color="white"/>
<stop offset="0.12" stop-color="#DADADA"/>
<stop offset="0.45" stop-color="#7E7E7E"/>
<stop offset="0.71" stop-color="#3A3A3A"/>
<stop offset="0.9" stop-color="#101010"/>
<stop offset="1"/>
</linearGradient>
<linearGradient id="paint22_linear_134_202" x1="548.146" y1="691.019" x2="426.378" y2="414.187" gradientUnits="userSpaceOnUse">
<stop stop-color="white"/>
<stop offset="0.12" stop-color="#DADADA"/>
<stop offset="0.45" stop-color="#7E7E7E"/>
<stop offset="0.71" stop-color="#3A3A3A"/>
<stop offset="0.9" stop-color="#101010"/>
<stop offset="1"/>
</linearGradient>
<linearGradient id="paint23_linear_134_202" x1="493.146" y1="504.479" x2="493.146" y2="455.178" gradientUnits="userSpaceOnUse">
<stop stop-color="white"/>
<stop offset="0.1" stop-color="#D0D0D0"/>
<stop offset="0.23" stop-color="#999999"/>
<stop offset="0.37" stop-color="#6A6A6A"/>
<stop offset="0.5" stop-color="#444444"/>
<stop offset="0.63" stop-color="#262626"/>
<stop offset="0.76" stop-color="#111111"/>
<stop offset="0.88" stop-color="#040404"/>
<stop offset="1"/>
</linearGradient>
<linearGradient id="paint24_linear_134_202" x1="433.674" y1="446.367" x2="453.542" y2="401.866" gradientUnits="userSpaceOnUse">
<stop stop-color="white"/>
<stop offset="0.1" stop-color="#D0D0D0"/>
<stop offset="0.23" stop-color="#999999"/>
<stop offset="0.37" stop-color="#6A6A6A"/>
<stop offset="0.5" stop-color="#444444"/>
<stop offset="0.63" stop-color="#262626"/>
<stop offset="0.76" stop-color="#111111"/>
<stop offset="0.88" stop-color="#040404"/>
<stop offset="1"/>
</linearGradient>
<linearGradient id="paint25_linear_134_202" x1="493.46" y1="382.625" x2="501.682" y2="347.487" gradientUnits="userSpaceOnUse">
<stop stop-color="white"/>
<stop offset="0.1" stop-color="#D0D0D0"/>
<stop offset="0.23" stop-color="#999999"/>
<stop offset="0.37" stop-color="#6A6A6A"/>
<stop offset="0.5" stop-color="#444444"/>
<stop offset="0.63" stop-color="#262626"/>
<stop offset="0.76" stop-color="#111111"/>
<stop offset="0.88" stop-color="#040404"/>
<stop offset="1"/>
</linearGradient>
<linearGradient id="paint26_linear_134_202" x1="505.655" y1="351.716" x2="483.448" y2="322.044" gradientUnits="userSpaceOnUse">
<stop stop-color="white"/>
<stop offset="0.1" stop-color="#D0D0D0"/>
<stop offset="0.23" stop-color="#999999"/>
<stop offset="0.37" stop-color="#6A6A6A"/>
<stop offset="0.5" stop-color="#444444"/>
<stop offset="0.63" stop-color="#262626"/>
<stop offset="0.76" stop-color="#111111"/>
<stop offset="0.88" stop-color="#040404"/>
<stop offset="1"/>
</linearGradient>
<clipPath id="clip0_134_202">
<rect width="1082" height="922" fill="white"/>
</clipPath>
</defs>
</svg>
